<?xml version="1.0" standalone="no"?>
<!DOCTYPE svg PUBLIC "-//W3C//DTD SVG 20010904//EN"
 "http://www.w3.org/TR/2001/REC-SVG-20010904/DTD/svg10.dtd">
<svg version="1.0" xmlns="http://www.w3.org/2000/svg"
 width="700.000000pt" height="700.000000pt" viewBox="0 0 700.000000 700.000000"
 preserveAspectRatio="xMidYMid meet">
<metadata>
Created by potrace 1.14, written by Peter Selinger 2001-2017
</metadata>
<g transform="translate(0.000000,700.000000) scale(0.100000,-0.100000)"
fill="#000000" stroke="none">
<path d="M1105 6118 c-108 -23 -191 -105 -220 -218 -8 -33 -11 -670 -10 -2420
l1 -2375 26 -55 c42 -88 104 -141 196 -164 36 -9 589 -12 2422 -11 l2375 0 55
27 c84 40 148 112 166 188 13 58 12 4757 -1 4810 -20 77 -52 124 -115 172 -75
55 74 52 -2487 53 -1305 0 -2388 -3 -2408 -7z m4583 -2619 l-1 -2188 -2187 1
-2187 1 0 2187 -1 2187 2188 0 2188 0 0 -2188z"/>
<path d="M2196 4363 c-57 -17 -126 -83 -143 -136 -31 -102 12 -206 110 -267
34 -21 87 -54 117 -73 30 -19 174 -108 320 -197 146 -90 273 -168 283 -175 16
-11 -29 -42 -365 -251 -211 -130 -399 -254 -419 -274 -130 -135 -27 -363 164
-362 60 1 81 12 303 155 96 62 209 135 252 162 43 28 176 113 296 190 119 77
233 150 253 162 111 66 154 162 123 274 -18 65 -77 112 -390 310 -168 106
-341 216 -385 244 -361 232 -378 242 -430 248 -23 2 -62 -2 -89 -10z"/>
<path d="M3654 3056 c-111 -41 -169 -139 -149 -256 9 -54 59 -118 115 -147
l44 -24 576 3 575 3 41 30 c73 52 104 114 99 197 -6 79 -48 143 -120 181 -39
21 -49 22 -596 22 -368 1 -566 -2 -585 -9z"/>
</g>
</svg>
